<svg xmlns="http://www.w3.org/2000/svg" xmlns:xlink="http://www.w3.org/1999/xlink" width="2000" zoomAndPan="magnify" viewBox="0 0 1500 1499.999933" height="2000" preserveAspectRatio="xMidYMid meet" version="1.0"><defs><g/><clipPath id="14934e8566"><path d="M 0.585938 11 L 483.039062 11 L 483.039062 585 L 0.585938 585 Z M 0.585938 11 " clip-rule="nonzero"/></clipPath><clipPath id="8f03511cb9"><path d="M 483.039062 436.898438 L 483.039062 159.09375 C 483.039062 132.746094 464.871094 109.875 439.203125 103.917969 L 44.417969 12.277344 C 33.796875 9.808594 22.632812 12.324219 14.097656 19.109375 C 5.558594 25.890625 0.585938 36.199219 0.585938 47.101562 L 0.585938 548.894531 C 0.585938 559.796875 5.558594 570.105469 14.097656 576.886719 C 22.632812 583.667969 33.796875 586.183594 44.417969 583.71875 L 439.203125 492.074219 C 464.871094 486.117188 483.039062 463.25 483.039062 436.898438 Z M 483.039062 436.898438 " clip-rule="nonzero"/></clipPath><clipPath id="7e461d0d9e"><path d="M 0.585938 0 L 483.039062 0 L 483.039062 574 L 0.585938 574 Z M 0.585938 0 " clip-rule="nonzero"/></clipPath><clipPath id="928feb8027"><path d="M 483.039062 425.898438 L 483.039062 148.09375 C 483.039062 121.746094 464.871094 98.875 439.203125 92.917969 L 44.417969 1.277344 C 33.796875 -1.191406 22.632812 1.324219 14.097656 8.109375 C 5.558594 14.890625 0.585938 25.199219 0.585938 36.101562 L 0.585938 537.894531 C 0.585938 548.796875 5.558594 559.105469 14.097656 565.886719 C 22.632812 572.667969 33.796875 575.183594 44.417969 572.71875 L 439.203125 481.074219 C 464.871094 475.117188 483.039062 452.25 483.039062 425.898438 Z M 483.039062 425.898438 " clip-rule="nonzero"/></clipPath><clipPath id="236afc445b"><rect x="0" width="484" y="0" height="574"/></clipPath><clipPath id="3196e86841"><path d="M 33 268 L 172 268 L 172 452.355469 L 33 452.355469 Z M 33 268 " clip-rule="nonzero"/></clipPath><clipPath id="d6714d4189"><path d="M 75 71.386719 L 130 71.386719 L 130 266 L 75 266 Z M 75 71.386719 " clip-rule="nonzero"/></clipPath><clipPath id="14e1fc7296"><path d="M 298 416 L 417 416 L 417 452.355469 L 298 452.355469 Z M 298 416 " clip-rule="nonzero"/></clipPath><clipPath id="9174b2db69"><path d="M 503 67 L 1292.800781 67 L 1292.800781 444 L 503 444 Z M 503 67 " clip-rule="nonzero"/></clipPath><clipPath id="aa76b7ff48"><rect x="0" width="790" y="0" height="377"/></clipPath><clipPath id="94947c1f35"><rect x="0" width="754" y="0" height="120"/></clipPath><clipPath id="0504a0b0bc"><rect x="0" width="1293" y="0" height="594"/></clipPath></defs><g transform="matrix(1, 0, 0, 1, 56, 452)"><g clip-path="url(#0504a0b0bc)"><g clip-path="url(#14934e8566)"><g clip-path="url(#8f03511cb9)"><g transform="matrix(1, 0, 0, 1, 0, 11)"><g clip-path="url(#236afc445b)"><g clip-path="url(#7e461d0d9e)"><g clip-path="url(#928feb8027)"><path fill="#c70101" d="M 0.585938 582.894531 L 0.585938 -8.867188 L 483.039062 -8.867188 L 483.039062 582.894531 Z M 0.585938 582.894531 " fill-opacity="1" fill-rule="nonzero"/></g></g></g></g></g></g><g clip-path="url(#3196e86841)"><path fill="#ffffff" d="M 158.621094 429.070312 C 166.171875 421.515625 170.441406 411.664062 170.769531 401.160156 C 174.382812 304.621094 144.171875 278.027344 131.367188 271.128906 C 128.414062 269.488281 125.128906 268.832031 121.847656 268.832031 L 82.441406 268.832031 C 79.160156 268.832031 75.875 269.488281 72.921875 271.128906 C 59.785156 278.027344 29.578125 304.949219 33.519531 401.160156 C 33.847656 411.664062 38.445312 421.84375 45.667969 429.070312 C 56.503906 439.574219 74.890625 452.382812 102.144531 452.382812 C 129.398438 452.382812 148.113281 439.902344 158.621094 429.070312 Z M 74.890625 424.800781 C 74.890625 417.574219 80.800781 411.992188 87.695312 411.992188 L 115.933594 411.992188 C 123.160156 411.992188 128.742188 417.90625 128.742188 424.800781 C 128.742188 432.023438 122.832031 437.605469 115.933594 437.605469 L 87.695312 437.605469 C 80.800781 437.933594 74.890625 432.023438 74.890625 424.800781 Z M 74.890625 424.800781 " fill-opacity="1" fill-rule="nonzero"/></g><g clip-path="url(#d6714d4189)"><path fill="#ffffff" d="M 77.519531 217.28125 L 75.21875 265.546875 C 77.519531 264.890625 79.816406 264.5625 82.441406 264.5625 L 121.847656 264.5625 C 124.144531 264.5625 126.769531 264.890625 129.070312 265.546875 L 126.769531 217.28125 L 121.515625 214.652344 L 121.515625 205.460938 L 126.113281 201.191406 L 124.800781 175.25 L 124.472656 175.578125 L 117.578125 162.117188 L 120.859375 147.011719 L 123.160156 147.011719 L 122.832031 137.492188 L 117.578125 132.566406 L 117.578125 120.417969 L 120.203125 115.820312 L 120.203125 106.953125 L 121.515625 105.96875 L 121.1875 96.117188 L 102.144531 71.492188 L 83.429688 96.117188 L 83.101562 105.96875 L 84.414062 106.953125 L 84.414062 115.820312 L 87.039062 120.417969 L 87.039062 132.566406 L 81.785156 137.492188 L 81.457031 147.011719 L 83.757812 147.011719 L 87.039062 162.117188 L 80.144531 175.578125 L 79.816406 175.25 L 78.503906 201.191406 L 83.101562 205.460938 L 83.101562 214.652344 Z M 98.859375 98.089844 C 98.859375 96.445312 100.175781 94.804688 102.144531 94.804688 C 103.785156 94.804688 105.429688 96.117188 105.429688 98.089844 L 105.429688 242.5625 L 99.1875 242.5625 L 99.1875 98.089844 Z M 98.859375 98.089844 " fill-opacity="1" fill-rule="nonzero"/></g><path fill="#ffffff" d="M 430.496094 223.847656 C 421.304688 215.640625 398.320312 215.308594 392.738281 227.789062 C 392.082031 229.101562 390.765625 243.878906 391.753906 243.878906 C 391.09375 244.207031 382.558594 247.488281 382.558594 247.488281 C 381.574219 196.921875 334.945312 148.65625 334.945312 148.65625 C 283.066406 137.492188 201.308594 132.894531 200.980469 132.894531 C 200.980469 132.894531 169.457031 134.535156 133.007812 138.476562 L 133.667969 153.25 L 133.667969 154.894531 C 155.335938 151.609375 177.335938 150.296875 197.695312 150.296875 L 200.652344 150.296875 C 235.457031 149.96875 273.875 153.578125 310.320312 164.742188 C 310.320312 164.742188 310.648438 164.742188 310.648438 164.742188 C 312.949219 166.386719 347.097656 194.296875 355.960938 242.234375 C 355.960938 242.5625 355.632812 243.21875 355.304688 243.21875 L 137.933594 243.21875 L 138.921875 264.234375 C 143.515625 267.191406 148.441406 271.128906 153.695312 277.699219 C 154.023438 274.742188 156.652344 272.117188 159.933594 272.117188 C 163.21875 272.117188 166.171875 275.070312 166.171875 278.355469 L 166.171875 298.054688 C 166.171875 298.382812 166.5 298.710938 166.5 299.039062 C 174.710938 317.429688 179.308594 341.070312 180.621094 369.308594 L 298.171875 369.308594 C 301.453125 369.308594 304.082031 371.933594 304.082031 375.21875 L 304.082031 387.039062 C 304.082031 390.324219 301.453125 392.949219 298.171875 392.949219 L 181.277344 392.949219 C 181.277344 395.90625 181.277344 398.859375 180.949219 402.144531 C 180.949219 403.785156 180.621094 405.425781 180.621094 407.070312 L 412.109375 407.070312 C 416.050781 407.070312 419.003906 403.785156 419.003906 400.171875 L 419.003906 252.085938 C 419.003906 253.070312 434.4375 247.816406 436.410156 246.175781 C 444.945312 239.28125 436.410156 229.101562 430.496094 223.847656 Z M 193.425781 327.277344 C 193.425781 330.890625 190.472656 333.515625 187.1875 333.515625 C 183.578125 333.515625 180.949219 330.5625 180.949219 327.277344 L 180.949219 278.027344 C 180.949219 274.742188 183.90625 271.789062 187.1875 271.789062 C 190.472656 271.789062 193.425781 274.742188 193.425781 278.027344 Z M 220.679688 327.277344 C 220.679688 330.890625 217.726562 333.515625 214.441406 333.515625 C 211.15625 333.515625 208.203125 330.5625 208.203125 327.277344 L 208.203125 278.027344 C 208.203125 274.742188 211.15625 271.789062 214.441406 271.789062 C 218.054688 271.789062 220.679688 274.742188 220.679688 278.027344 Z M 247.605469 327.277344 C 247.605469 330.890625 244.648438 333.515625 241.367188 333.515625 C 238.082031 333.515625 235.128906 330.5625 235.128906 327.277344 L 235.128906 278.027344 C 235.128906 274.742188 238.082031 271.789062 241.367188 271.789062 C 244.976562 271.789062 247.605469 274.742188 247.605469 278.027344 Z M 274.859375 327.277344 C 274.859375 330.890625 271.902344 333.515625 268.621094 333.515625 C 265.007812 333.515625 262.382812 330.5625 262.382812 327.277344 L 262.382812 278.027344 C 262.382812 274.742188 265.335938 271.789062 268.621094 271.789062 C 271.902344 271.789062 274.859375 274.742188 274.859375 278.027344 Z M 308.351562 291.160156 C 308.351562 275.726562 346.769531 267.519531 361.871094 267.519531 C 376.976562 267.519531 389.453125 276.054688 389.453125 291.160156 C 389.453125 306.265625 376.976562 314.800781 361.871094 314.800781 C 346.4375 314.800781 308.351562 306.265625 308.351562 291.160156 Z M 397.664062 386.710938 C 397.664062 389.996094 395.035156 392.621094 391.753906 392.621094 L 326.410156 392.621094 C 323.125 392.621094 320.5 389.996094 320.5 386.710938 L 320.5 374.890625 C 320.5 371.605469 323.125 368.980469 326.410156 368.980469 L 391.753906 368.980469 C 395.035156 368.980469 397.664062 371.605469 397.664062 374.890625 Z M 397.664062 386.710938 " fill-opacity="1" fill-rule="nonzero"/><g clip-path="url(#14e1fc7296)"><path fill="#ffffff" d="M 298.828125 416.261719 L 298.828125 438.589844 C 298.828125 446.144531 305.066406 452.382812 312.617188 452.382812 L 402.917969 452.382812 C 410.46875 452.382812 416.707031 446.144531 416.707031 438.589844 L 416.707031 416.261719 Z M 298.828125 416.261719 " fill-opacity="1" fill-rule="nonzero"/></g><g clip-path="url(#9174b2db69)"><g transform="matrix(1, 0, 0, 1, 503, 67)"><g clip-path="url(#aa76b7ff48)"><g fill="#c70101" fill-opacity="1"><g transform="translate(0.725161, 282.500602)"><g><path d="M 125.796875 0 L 76.921875 -73.453125 L 64.09375 -73.453125 L 64.09375 0 L 17.359375 0 L 17.359375 -186.953125 L 86.53125 -186.953125 C 100.59375 -186.953125 113.144531 -184.367188 124.1875 -179.203125 C 135.226562 -174.046875 143.816406 -166.96875 149.953125 -157.96875 C 156.097656 -148.976562 159.171875 -138.96875 159.171875 -127.9375 C 159.171875 -116.894531 156.097656 -107.054688 149.953125 -98.421875 C 143.816406 -89.785156 135.226562 -83.0625 124.1875 -78.25 L 181.34375 0 Z M 64.09375 -146.890625 L 64.09375 -78.78125 L 77.453125 -78.78125 C 87.421875 -78.78125 95.609375 -82.03125 102.015625 -88.53125 C 108.429688 -95.03125 111.640625 -103.175781 111.640625 -112.96875 C 111.640625 -122.582031 108.429688 -130.640625 102.015625 -137.140625 C 95.609375 -143.640625 87.421875 -146.890625 77.453125 -146.890625 Z M 64.09375 -146.890625 "/></g></g></g><g fill="#c70101" fill-opacity="1"><g transform="translate(158.556512, 282.500602)"><g><path d="M 64.09375 -93.484375 L 64.09375 -41.390625 L 140.75 -41.390625 L 140.75 0 L 17.359375 0 L 17.359375 -186.953125 L 138.078125 -186.953125 L 138.078125 -145.5625 L 64.09375 -145.5625 L 64.09375 -98.8125 L 134.078125 -98.8125 L 134.078125 -93.484375 Z M 64.09375 -93.484375 "/></g></g></g><g fill="#c70101" fill-opacity="1"><g transform="translate(292.352218, 282.500602)"><g><path d="M 146.890625 -30.984375 L 146.890625 -186.953125 L 192.296875 -186.953125 L 192.296875 0 L 158.90625 0 L 62.765625 -155.96875 L 62.765625 0 L 17.359375 0 L 17.359375 -186.953125 L 50.75 -186.953125 Z M 146.890625 -30.984375 "/></g></g></g><g fill="#c70101" fill-opacity="1"><g transform="translate(483.833449, 282.500602)"><g><path d="M 95.078125 0 L 48.34375 0 L 48.34375 -144.21875 L 2.671875 -144.21875 L 2.671875 -186.953125 L 140.75 -186.953125 L 140.75 -144.21875 L 95.078125 -144.21875 Z M 95.078125 0 "/></g></g></g><g fill="#c70101" fill-opacity="1"><g transform="translate(609.083148, 282.500602)"><g><path d="M 119.390625 -96.6875 L 176.265625 0 L 123.65625 0 L 88.140625 -64.640625 L 52.34375 0 L 0.796875 0 L 57.6875 -96.6875 L 6.40625 -186.953125 L 58.21875 -186.953125 L 89.203125 -127.9375 L 119.921875 -186.953125 L 170.65625 -186.953125 Z M 119.390625 -96.6875 "/></g></g></g></g></g></g><g transform="matrix(1, 0, 0, 1, 515, 349)"><g clip-path="url(#94947c1f35)"><g fill="#c70101" fill-opacity="1"><g transform="translate(1.152543, 86.925757)"><g><path d="M 34.09375 0.875 C 28.457031 0.875 23.253906 -0.519531 18.484375 -3.3125 C 13.722656 -6.101562 9.957031 -9.910156 7.1875 -14.734375 C 4.425781 -19.554688 3.046875 -24.816406 3.046875 -30.515625 C 3.046875 -36.210938 4.425781 -41.472656 7.1875 -46.296875 C 9.957031 -51.128906 13.722656 -54.941406 18.484375 -57.734375 C 23.253906 -60.523438 28.457031 -61.921875 34.09375 -61.921875 C 41.007812 -61.921875 47.007812 -59.972656 52.09375 -56.078125 C 57.1875 -52.179688 60.835938 -46.710938 63.046875 -39.671875 L 55.640625 -39.671875 C 53.953125 -44.554688 51.160156 -48.394531 47.265625 -51.1875 C 43.367188 -53.976562 38.976562 -55.375 34.09375 -55.375 C 29.789062 -55.375 25.804688 -54.269531 22.140625 -52.0625 C 18.484375 -49.851562 15.59375 -46.859375 13.46875 -43.078125 C 11.351562 -39.296875 10.296875 -35.109375 10.296875 -30.515625 C 10.296875 -25.921875 11.351562 -21.734375 13.46875 -17.953125 C 15.59375 -14.179688 18.484375 -11.191406 22.140625 -8.984375 C 25.804688 -6.773438 29.789062 -5.671875 34.09375 -5.671875 C 39.15625 -5.671875 43.644531 -7.066406 47.5625 -9.859375 C 51.488281 -12.648438 54.296875 -16.484375 55.984375 -21.359375 L 63.390625 -21.359375 C 61.179688 -14.328125 57.503906 -8.863281 52.359375 -4.96875 C 47.210938 -1.070312 41.125 0.875 34.09375 0.875 Z M 34.09375 0.875 "/></g></g></g><g fill="#c70101" fill-opacity="1"><g transform="translate(101.687797, 86.925757)"><g><path d="M 39.765625 -42.734375 L 46.3125 -42.734375 L 46.3125 0 L 39.765625 0 L 39.765625 -6.546875 C 37.960938 -4.273438 35.691406 -2.46875 32.953125 -1.125 C 30.222656 0.207031 27.257812 0.875 24.0625 0.875 C 20.164062 0.875 16.53125 -0.0976562 13.15625 -2.046875 C 9.789062 -3.992188 7.117188 -6.664062 5.140625 -10.0625 C 3.171875 -13.46875 2.1875 -17.234375 2.1875 -21.359375 C 2.1875 -25.492188 3.171875 -29.257812 5.140625 -32.65625 C 7.117188 -36.0625 9.789062 -38.734375 13.15625 -40.671875 C 16.53125 -42.617188 20.164062 -43.59375 24.0625 -43.59375 C 27.257812 -43.59375 30.222656 -42.925781 32.953125 -41.59375 C 35.691406 -40.257812 37.960938 -38.457031 39.765625 -36.1875 Z M 24.59375 -5.234375 C 27.4375 -5.234375 30.050781 -5.941406 32.4375 -7.359375 C 34.820312 -8.785156 36.710938 -10.71875 38.109375 -13.15625 C 39.503906 -15.601562 40.203125 -18.335938 40.203125 -21.359375 C 40.203125 -24.390625 39.503906 -27.125 38.109375 -29.5625 C 36.710938 -32 34.820312 -33.929688 32.4375 -35.359375 C 30.050781 -36.785156 27.4375 -37.5 24.59375 -37.5 C 21.738281 -37.5 19.117188 -36.785156 16.734375 -35.359375 C 14.359375 -33.929688 12.472656 -32 11.078125 -29.5625 C 9.679688 -27.125 8.984375 -24.390625 8.984375 -21.359375 C 8.984375 -18.335938 9.679688 -15.601562 11.078125 -13.15625 C 12.472656 -10.71875 14.359375 -8.785156 16.734375 -7.359375 C 19.117188 -5.941406 21.738281 -5.234375 24.59375 -5.234375 Z M 24.59375 -5.234375 "/></g></g></g><g fill="#c70101" fill-opacity="1"><g transform="translate(187.749432, 86.925757)"><g><path d="M 28.78125 -43.171875 L 28.78125 -37.0625 L 24.421875 -37.0625 C 22.085938 -37.0625 19.960938 -36.519531 18.046875 -35.4375 C 16.128906 -34.363281 14.601562 -32.867188 13.46875 -30.953125 C 12.332031 -29.035156 11.765625 -26.859375 11.765625 -24.421875 L 11.765625 0 L 5.234375 0 L 5.234375 -42.734375 L 11.765625 -42.734375 L 11.765625 -36.625 C 13.515625 -38.78125 15.535156 -40.410156 17.828125 -41.515625 C 20.128906 -42.617188 22.613281 -43.171875 25.28125 -43.171875 Z M 28.78125 -43.171875 "/></g></g></g><g fill="#c70101" fill-opacity="1"><g transform="translate(248.002631, 86.925757)"><g/></g></g><g fill="#c70101" fill-opacity="1"><g transform="translate(305.64031, 86.925757)"><g><path d="M 42.375 0 L 19.703125 -28.34375 L 13.515625 -28.34375 L 13.515625 0 L 6.546875 0 L 6.546875 -61.046875 L 24.421875 -61.046875 C 28.316406 -61.046875 31.757812 -60.285156 34.75 -58.765625 C 37.738281 -57.253906 40.0625 -55.175781 41.71875 -52.53125 C 43.382812 -49.894531 44.21875 -46.914062 44.21875 -43.59375 C 44.21875 -39.46875 42.75 -36.066406 39.8125 -33.390625 C 36.875 -30.722656 32.929688 -29.097656 27.984375 -28.515625 L 51.015625 0 Z M 13.515625 -54.5 L 13.515625 -30.078125 L 24.421875 -30.078125 C 28.191406 -30.078125 31.222656 -31.164062 33.515625 -33.34375 C 35.816406 -35.53125 36.96875 -38.515625 36.96875 -42.296875 C 36.96875 -46.191406 35.847656 -49.195312 33.609375 -51.3125 C 31.378906 -53.4375 28.316406 -54.5 24.421875 -54.5 Z M 13.515625 -54.5 "/></g></g></g><g fill="#c70101" fill-opacity="1"><g transform="translate(388.998905, 86.925757)"><g><path d="M 23.625 -43.59375 C 27.519531 -43.59375 31.082031 -42.691406 34.3125 -40.890625 C 37.539062 -39.085938 40.066406 -36.628906 41.890625 -33.515625 C 43.722656 -30.410156 44.640625 -26.941406 44.640625 -23.109375 C 44.640625 -22.117188 44.613281 -21.390625 44.5625 -20.921875 L 8.984375 -20.921875 C 9.097656 -16.210938 10.476562 -12.421875 13.125 -9.546875 C 15.769531 -6.671875 19.269531 -5.234375 23.625 -5.234375 C 26.945312 -5.234375 29.769531 -6.03125 32.09375 -7.625 C 34.414062 -9.226562 36.160156 -11.628906 37.328125 -14.828125 L 44.125 -14.828125 C 42.613281 -9.710938 40.082031 -5.816406 36.53125 -3.140625 C 32.988281 -0.460938 28.6875 0.875 23.625 0.875 C 19.613281 0.875 15.96875 -0.0976562 12.6875 -2.046875 C 9.40625 -3.992188 6.832031 -6.65625 4.96875 -10.03125 C 3.113281 -13.40625 2.1875 -17.179688 2.1875 -21.359375 C 2.1875 -25.546875 3.113281 -29.328125 4.96875 -32.703125 C 6.832031 -36.078125 9.40625 -38.734375 12.6875 -40.671875 C 15.96875 -42.617188 19.613281 -43.59375 23.625 -43.59375 Z M 23.625 -37.5 C 19.382812 -37.5 15.957031 -36.160156 13.34375 -33.484375 C 10.726562 -30.804688 9.273438 -27.203125 8.984375 -22.671875 L 38.109375 -22.671875 C 37.878906 -27.378906 36.441406 -31.023438 33.796875 -33.609375 C 31.148438 -36.203125 27.757812 -37.5 23.625 -37.5 Z M 23.625 -37.5 "/></g></g></g><g fill="#c70101" fill-opacity="1"><g transform="translate(470.35229, 86.925757)"><g><path d="M 25.28125 -43.59375 C 28.71875 -43.59375 31.757812 -42.765625 34.40625 -41.109375 C 37.050781 -39.453125 39.097656 -37.195312 40.546875 -34.34375 C 42.003906 -31.5 42.734375 -28.335938 42.734375 -24.859375 L 42.734375 0 L 36.1875 0 L 36.1875 -24.859375 C 36.1875 -28.628906 35.140625 -31.675781 33.046875 -34 C 30.953125 -36.332031 28.078125 -37.5 24.421875 -37.5 C 22.085938 -37.5 19.960938 -36.957031 18.046875 -35.875 C 16.128906 -34.800781 14.601562 -33.304688 13.46875 -31.390625 C 12.332031 -29.472656 11.765625 -27.296875 11.765625 -24.859375 L 11.765625 0 L 5.234375 0 L 5.234375 -42.734375 L 11.765625 -42.734375 L 11.765625 -37.0625 C 13.515625 -39.207031 15.535156 -40.832031 17.828125 -41.9375 C 20.128906 -43.039062 22.613281 -43.59375 25.28125 -43.59375 Z M 25.28125 -43.59375 "/></g></g></g><g fill="#c70101" fill-opacity="1"><g transform="translate(552.403188, 86.925757)"><g><path d="M 23.984375 -40.984375 L 13.078125 -40.984375 L 13.078125 -13.078125 C 13.078125 -10.929688 13.703125 -9.234375 14.953125 -7.984375 C 16.203125 -6.734375 17.90625 -6.109375 20.0625 -6.109375 L 23.984375 -6.109375 L 23.984375 0 L 19.625 0 C 15.726562 0 12.570312 -1.175781 10.15625 -3.53125 C 7.75 -5.882812 6.546875 -8.921875 6.546875 -12.640625 L 6.546875 -40.984375 L -0.4375 -40.984375 L -0.4375 -42.734375 L 6.546875 -42.734375 L 6.546875 -54.0625 L 13.078125 -54.0625 L 13.078125 -42.734375 L 23.984375 -42.734375 Z M 23.984375 -40.984375 "/></g></g></g><g fill="#c70101" fill-opacity="1"><g transform="translate(611.348689, 86.925757)"><g><path d="M 39.765625 -42.734375 L 46.3125 -42.734375 L 46.3125 0 L 39.765625 0 L 39.765625 -6.546875 C 37.960938 -4.273438 35.691406 -2.46875 32.953125 -1.125 C 30.222656 0.207031 27.257812 0.875 24.0625 0.875 C 20.164062 0.875 16.53125 -0.0976562 13.15625 -2.046875 C 9.789062 -3.992188 7.117188 -6.664062 5.140625 -10.0625 C 3.171875 -13.46875 2.1875 -17.234375 2.1875 -21.359375 C 2.1875 -25.492188 3.171875 -29.257812 5.140625 -32.65625 C 7.117188 -36.0625 9.789062 -38.734375 13.15625 -40.671875 C 16.53125 -42.617188 20.164062 -43.59375 24.0625 -43.59375 C 27.257812 -43.59375 30.222656 -42.925781 32.953125 -41.59375 C 35.691406 -40.257812 37.960938 -38.457031 39.765625 -36.1875 Z M 24.59375 -5.234375 C 27.4375 -5.234375 30.050781 -5.941406 32.4375 -7.359375 C 34.820312 -8.785156 36.710938 -10.71875 38.109375 -13.15625 C 39.503906 -15.601562 40.203125 -18.335938 40.203125 -21.359375 C 40.203125 -24.390625 39.503906 -27.125 38.109375 -29.5625 C 36.710938 -32 34.820312 -33.929688 32.4375 -35.359375 C 30.050781 -36.785156 27.4375 -37.5 24.59375 -37.5 C 21.738281 -37.5 19.117188 -36.785156 16.734375 -35.359375 C 14.359375 -33.929688 12.472656 -32 11.078125 -29.5625 C 9.679688 -27.125 8.984375 -24.390625 8.984375 -21.359375 C 8.984375 -18.335938 9.679688 -15.601562 11.078125 -13.15625 C 12.472656 -10.71875 14.359375 -8.785156 16.734375 -7.359375 C 19.117188 -5.941406 21.738281 -5.234375 24.59375 -5.234375 Z M 24.59375 -5.234375 "/></g></g></g><g fill="#c70101" fill-opacity="1"><g transform="translate(697.410325, 86.925757)"><g><path d="M 12.203125 0 L 5.671875 0 L 5.671875 -62.78125 L 12.203125 -62.78125 Z M 12.203125 0 "/></g></g></g></g></g></g></g></svg>